<svg width="64" height="50" viewBox="0 0 64 50" fill="none" xmlns="http://www.w3.org/2000/svg">
<path d="M7.9234 0.828125L19.1411 12.0161" stroke="#5C5C5C" stroke-width="2" stroke-miterlimit="10" stroke-linecap="round"/>
<path d="M12.3974 0.595703H7.63147V5.3616" stroke="#5C5C5C" stroke-width="2" stroke-miterlimit="10" stroke-linecap="round"/>
<path d="M55.2308 0.828125L44.0131 12.0161" stroke="#5C5C5C" stroke-width="2" stroke-miterlimit="10" stroke-linecap="round"/>
<path d="M21.3334 18.9503V30.2991L31.1631 35.9765L40.9927 30.2991V18.9503L31.1631 13.2729L21.3334 18.9503Z" stroke="#B094E3" stroke-width="2" stroke-miterlimit="10" stroke-linecap="round"/>
<path d="M50.5245 0.595703H55.2904V5.3616" stroke="#5C5C5C" stroke-width="2" stroke-miterlimit="10" stroke-linecap="round"/>
<path d="M63.035 25.0209L47.5458 24.9971" stroke="#5C5C5C" stroke-width="2" stroke-miterlimit="10" stroke-linecap="round"/>
<path d="M59.7644 21.5298L63.1541 24.9255L59.812 28.2676" stroke="#5C5C5C" stroke-width="2" stroke-miterlimit="10" stroke-linecap="round"/>
<path d="M1.07837 25.0209L16.5675 24.9971" stroke="#5C5C5C" stroke-width="2" stroke-miterlimit="10" stroke-linecap="round"/>
<path d="M4.23573 21.5298L0.840027 24.9255L4.18807 28.2676" stroke="#5C5C5C" stroke-width="2" stroke-miterlimit="10" stroke-linecap="round"/>
<path d="M7.9234 49.0529L19.1411 37.865" stroke="#5C5C5C" stroke-width="2" stroke-miterlimit="10" stroke-linecap="round"/>
<path d="M12.3974 48.8504H7.63147V44.0845" stroke="#5C5C5C" stroke-width="2" stroke-miterlimit="10" stroke-linecap="round"/>
<path d="M55.2308 49.0529L44.0131 37.865" stroke="#5C5C5C" stroke-width="2" stroke-miterlimit="10" stroke-linecap="round"/>
<path d="M50.5245 48.8504H55.2904V44.0845" stroke="#5C5C5C" stroke-width="2" stroke-miterlimit="10" stroke-linecap="round"/>
<path d="M27.5231 24.5146L30.0847 27.0763L34.8745 22.2925" stroke="#B094E3" stroke-width="2" stroke-miterlimit="10" stroke-linecap="round"/>
</svg>
